<svg width="1440" height="505" viewBox="0 0 1440 505" fill="none" xmlns="http://www.w3.org/2000/svg">
<path fill-rule="evenodd" clip-rule="evenodd" d="M0 12.4586L60 7.63803C120 2.81744 240 -6.82375 360 7.63803C480 22.0998 600 60.6646 720 70.3057C840 79.9469 960 60.6646 1080 60.6646C1200 60.6646 1320 79.9469 1380 89.5881L1440 99.2293V186H1380C1320 186 1200 186 1080 186C960 186 840 186 720 186C600 186 480 186 360 186C240 186 120 186 60 186H0V12.4586Z" fill="#FFC700"/>
<g filter="url(#filter0_d_237_20)">
<path d="M-0.00946321 170L1439.98 170L1439.99 505H4.35813e-05L-0.00946321 170Z" fill="#FFC700"/>
</g>
<defs>
<filter id="filter0_d_237_20" x="-4.00952" y="170" width="1448" height="343" filterUnits="userSpaceOnUse" color-interpolation-filters="sRGB">
<feFlood flood-opacity="0" result="BackgroundImageFix"/>
<feColorMatrix in="SourceAlpha" type="matrix" values="0 0 0 0 0 0 0 0 0 0 0 0 0 0 0 0 0 0 127 0" result="hardAlpha"/>
<feOffset dy="4"/>
<feGaussianBlur stdDeviation="2"/>
<feComposite in2="hardAlpha" operator="out"/>
<feColorMatrix type="matrix" values="0 0 0 0 0 0 0 0 0 0 0 0 0 0 0 0 0 0 0.25 0"/>
<feBlend mode="normal" in2="BackgroundImageFix" result="effect1_dropShadow_237_20"/>
<feBlend mode="normal" in="SourceGraphic" in2="effect1_dropShadow_237_20" result="shape"/>
</filter>
</defs>
</svg>
